<?xml version="1.0" standalone="no"?>
<!DOCTYPE svg PUBLIC "-//W3C//DTD SVG 1.1//EN" "http://www.w3.org/Graphics/SVG/1.1/DTD/svg11.dtd">
<svg xmlns="http://www.w3.org/2000/svg">
<metadata>Copyright (C) 2018 by original authors @ fontello.com</metadata>
<defs>
<font id="fontello" horiz-adv-x="1000" >
<font-face font-family="fontello" font-weight="400" font-stretch="normal" units-per-em="1000" ascent="850" descent="-150" />
<missing-glyph horiz-adv-x="1000" />
<glyph glyph-name="gameroom" unicode="&#xe800;" d="M939 850c34 0 61-27 61-61l0-878c0-34-27-61-61-61l-878 0c-34 0-61 27-61 61l0 878c0 34 27 61 61 61l878 0z m-548-787l-129 0 0-129 129 0 0 129z m-176 0l-129 0 0-129 129 0 0 129z m703 0l-129 0 0-129 129 0 0 129z m-352 0l-128 0 0-129 128 0 0 129z m176 0l-129 0 0-129 129 0 0 129z m176 176l-129 0 0-129 129 0 0 129z m-352 0l-128 0 0-129 128 0 0 129z m-175 0l-129 0 0-129 129 0 0 129z m351 176l-129 0 0-129 129 0 0 129z m-527 0l-129 0 0-129 129 0 0 129z m703 175l-129 0 0-129 129 0 0 129z m-352 176l-128 0 0-129 128 0 0 129z" horiz-adv-x="1000" />

<glyph glyph-name="apple" unicode="&#xe809;" d="M657 783a168 168 0 0 0 0-41 191 191 0 0 0-70-123 143 143 0 0 0-102-36 122 122 0 0 0 0 45 193 193 0 0 0 86 124 196 196 0 0 0 76 31z m67-472a191 191 0 0 0 92 177l-4 6a189 189 0 0 1-71 58 214 214 0 0 1-122 20 353 353 0 0 1-86-27 90 90 0 0 0-73 0c-15 6-31 12-47 18a173 173 0 0 1-57 12 204 204 0 0 1-166-82 252 252 0 0 1-57-138 467 467 0 0 1 27-203 506 506 0 0 1 57-117 408 408 0 0 1 76-93 96 96 0 0 1 74-25 185 185 0 0 1 58 17 172 172 0 0 0 145 3c10-4 19-8 29-12a109 109 0 0 1 95 6 174 174 0 0 1 47 43 551 551 0 0 1 67 105c11 22 19 44 29 66a190 190 0 0 0-114 166z" horiz-adv-x="1000" />

<glyph glyph-name="clipboard" unicode="&#xe819;" d="M125 100h250v-62h-250v62z m313 375h-313v-62h313v62z m125-187v125l-188-188 188-187v125h312v125h-312z m-282 62h-156v-62h156v62z m-156-187h156v62h-156v-62z m563-63h62v-125c-1-18-7-32-19-44s-26-18-43-19h-625c-35 0-63 29-63 63v688c0 34 28 62 63 62h187c0 69 56 125 125 125s125-56 125-125h188c34 0 62-28 62-62v-313h-62v188h-625v-563h625v125z m-563 500h500c0 34-28 63-62 63h-63c-34 0-62 28-62 62s-29 63-63 63-62-29-62-63-29-62-63-62h-62c-35 0-63-29-63-63z" horiz-adv-x="875" />

<glyph glyph-name="king" unicode="&#xe858;" d="M1000 378a81 81 0 0 1-29 60 79 79 0 0 1-49 19 91 91 0 0 1-76-48 88 88 0 0 1-51 18 93 93 0 0 1-61-25 129 129 0 0 1-31-41 103 103 0 0 1-24 44 66 66 0 0 1-48 21h0a77 77 0 0 1-62-35 49 49 0 0 1-22 6h-4a238 238 0 0 1 54 140c0 2 0 4 0 6a181 181 0 0 1-4 36c-13 57-54 96-101 96h0l-12 0a95 95 0 0 1-82-93 125 125 0 0 1 0-24 97 97 0 0 1 76-81c-45-56-157-113-279-140h0a212 212 0 0 1-24 54 107 107 0 0 1-88 57 81 81 0 0 1-36-8 84 84 0 0 1-47-71v-7a86 86 0 0 1 83-88h3a395 395 0 0 0 14-77c0-7 0-15 2-23 2-22 3-43 6-63 5-39 17-132 123-132a239 239 0 0 1 41 4 30 30 0 0 1 24 25 33 33 0 0 1-10 36l0 0-2 0a86 86 0 0 0-30 44c25-37 51-57 82-57h4a41 41 0 0 1 4-16l11-24 25 10a400 400 0 0 0 127 16 860 860 0 0 0 214-29 276 276 0 0 1 69-10c105 0 115 91 118 126a765 765 0 0 1 5 79c0 18 0 35 3 52a345 345 0 0 0 8 54 81 81 0 0 1 76 87v0z m-731-357c2 0 0-9 0-9a210 210 0 0 0-36-3c-69 0-86 46-94 108-4 26-6 54-8 85a357 357 0 0 1-26 105 51 51 0 0 0-22-4 57 57 0 0 0-54 59v2h0v0h0a55 55 0 0 0 28 48 53 53 0 0 0 23 5 83 83 0 0 0 65-44 182 182 0 0 0 20-45h0l8-28c4-16 14-61 19-94l0-4 1-3v0c17-78 34-155 76-178z m702 355a53 53 0 0 0-52-59 47 47 0 0 0-16 3 325 325 0 0 1-18-83c-3-45-1-92-7-130-6-57-24-100-89-100a250 250 0 0 0-62 9 884 884 0 0 1-222 31 413 413 0 0 1-137-18s-2 6 0 8c17 27 99 55 211 55h19c64-3 115-17 151-17s64 16 74 81l0 3a79 79 0 0 0-61-36 43 43 0 0 0-39 23 127 127 0 0 0-12 36c-14-29-36-60-70-60h-3c-22 0-28 16-28 49q0 5 0 9c0 24 1 68 2 91v2c0 22-7 31-15 31s-22-16-25-40c0-3 0-11 0-20 0-35 0-88 0-111 0-5 0-9 0-12a176 176 0 0 0-27-2c-36 0-45 17-45 48-18-49-43-70-64-70s-34 16-41 43c-10-40-36-79-61-79-33 0-65 40-112 148l-3 15c-5 30-11 59-18 86 160 36 308 121 324 200a67 67 0 0 0-23-8l-9 0a68 68 0 0 0-66 59 94 94 0 0 0 0 18h0a67 67 0 0 0 57 66l7 0a84 84 0 0 0 74-73 152 152 0 0 0 3-31q0-2 0-4v0c-2-86-70-194-279-278 34-62 60-108 80-108a14 14 0 0 1 6 0c12 5 13 30 9 124a422 422 0 0 0 75 41c0-97 7-139 21-139a11 11 0 0 1 6 2c15 10 15 43 15 94 0 40-2 64-2 64a86 86 0 0 0 49 30c14 0 23-14 23-42 14 50 38 72 61 72 28 0 51-34 48-91-5-101-2-121 7-121s21 22 20 44h0c-2 57 12 122 46 150a65 65 0 0 0 42 18 77 77 0 0 0 59-37l3 4c21 47 46 63 67 63a50 50 0 0 0 31-12 52 52 0 0 0 16-37v0z m-279-267a109 109 0 0 1 14 12 73 73 0 0 1 18-17l-31 5z m-335 88c-8 13-18 29-28 48l28 12c0-21 0-43 0-60z m456 143a29 29 0 0 1-19-9 135 135 0 0 1-25-84 109 109 0 0 1 6-36 25 25 0 0 1 24-15 35 35 0 0 1 32 23 886 886 0 0 0 11 100 37 37 0 0 1-29 20z m-9-107v-6a7 7 0 0 0-3-2 109 109 0 0 0-2 23 127 127 0 0 0 12 59c-4-25-6-51-8-76z" horiz-adv-x="1000" />

<glyph glyph-name="defold" unicode="&#xe859;" d="M836 561v190l-172 99-164-95-164 95-171-99v-190l-165-94v-200l164-95v-189l171-99 164 94 164-94 171 99v190l166 95v200z m-189-99l-147-86-147 86 147 86z m-302-15l147-85v-169l-147 86z m138 299l-138-80v160z m-458-473l139 80v-160z m639-369l-164 95-164-95-147 86 164 94-164 94 147 86 164-95 163 95 147-86-163-95 163-94z m155 99l-138 80 138 81v-160z m17 190v160l139-80z m147 94l-164 95v-189l-146 86v188l-164 94v170l163-94v189l147-86v-189l164-95v-169z" horiz-adv-x="1000" />

<glyph glyph-name="search" unicode="&#xe86a;" d="M643 386q0 103-74 176t-176 74-177-74-73-176 73-177 177-73 176 73 74 177z m286-465q0-29-22-50t-50-21q-30 0-50 21l-191 191q-100-69-223-69-80 0-153 31t-125 84-84 125-31 153 31 152 84 126 125 84 153 31 152-31 126-84 84-126 31-152q0-123-69-223l191-191q21-21 21-51z" horiz-adv-x="928.6" />

<glyph glyph-name="link-ext" unicode="&#xe86f;" d="M786 332v-178q0-67-47-114t-114-47h-464q-67 0-114 47t-47 114v464q0 66 47 113t114 48h393q7 0 12-5t5-13v-36q0-8-5-13t-12-5h-393q-37 0-63-26t-27-63v-464q0-37 27-63t63-27h464q37 0 63 27t26 63v178q0 8 5 13t13 5h36q8 0 13-5t5-13z m214 482v-285q0-15-11-26t-25-10-25 10l-98 99-364-364q-5-6-13-6t-13 6l-63 63q-6 6-6 13t6 13l364 364-99 98q-10 11-10 25t10 25 26 11h285q15 0 25-11t11-25z" horiz-adv-x="1000" />

<glyph glyph-name="link" unicode="&#xe870;" d="M779 400l-57-100 59-100-116-200h-231l-115 200 173 300h-115l-174-300 174-300h346l173 300z m-632-100l58 100-59 100 115 200h231l116-200-174-300h116l174 300-174 300h-346l-174-300z" horiz-adv-x="1000" />

<glyph glyph-name="attention" unicode="&#xe871;" d="M571 83v106q0 8-5 13t-12 5h-108q-7 0-12-5t-5-13v-106q0-8 5-13t12-6h108q7 0 12 6t5 13z m-1 208l10 257q0 6-5 10-7 6-14 6h-122q-6 0-14-6-5-4-5-12l9-255q0-5 6-9t13-3h103q8 0 14 3t5 9z m-7 522l428-786q20-35-1-70-9-17-26-26t-35-10h-858q-18 0-35 10t-26 26q-21 35-1 70l429 786q9 17 26 27t36 10 36-10 27-27z" horiz-adv-x="1000" />

<glyph glyph-name="amazon" unicode="&#xe872;" d="M598 219c-7-7-14-13-20-19a217 217 0 0 0-173-57 160 160 0 0 0-96 37 149 149 0 0 0-51 103c-7 68 11 128 67 172a220 220 0 0 0 101 44c47 7 93 13 140 19 7 1 10 3 10 11 0 11 0 23 0 35-2 50-36 78-86 71-39-6-65-25-74-64a21 21 0 0 0-27-18l-94 10a20 20 0 0 0-20 27 176 176 0 0 0 107 132 319 319 0 0 0 249 5 142 142 0 0 0 97-136c2-78 2-155 1-233a146 146 0 0 1 33-97c21-26 20-29-6-50-21-19-43-37-65-56a25 25 0 0 0-38 0 338 338 0 0 0-30 30c-9 10-16 22-25 34z m-22 174c0 10 0 21 0 31 0 5-2 8-8 8a273 273 0 0 1-86-12c-62-22-74-77-62-121a61 61 0 0 1 75-47c37 8 57 34 70 66a193 193 0 0 1 11 75z m-84-443a712 712 0 0 0-467 174c-5 5-13 10-8 17s13 2 19-1a972 972 0 0 1 393-118 945 945 0 0 1 437 66 46 46 0 0 0 18 5 16 16 0 0 0 12-7 18 18 0 0 0-2-14 31 31 0 0 0-10-10 673 673 0 0 0-250-99 760 760 0 0 0-142-13z m389 177c-25-2-45-4-64-6a41 41 0 0 0-13 4c3 4 5 9 8 11a163 163 0 0 0 67 24 218 218 0 0 0 85-2c17-5 21-9 20-26a197 197 0 0 0-57-134 56 56 0 0 0-18-8 109 109 0 0 0 3 18c8 27 17 54 26 82a34 34 0 0 1 1 8c1 16-3 23-19 25s-29 3-39 4z" horiz-adv-x="1000" />

<glyph glyph-name="android" unicode="&#xe873;" d="M386-134c-3 1-7 1-11 3a53 53 0 0 0-36 51q0 64 0 128c0 6 0 6-6 6h-47a54 54 0 0 0-54 46 64 64 0 0 0 0 11q0 197 0 395c0 6 0 6 6 6h525c6 0 6 0 6-6 0-132 0-264 0-396a55 55 0 0 0-43-55 76 76 0 0 0-13-1h-46c-6 0-6 0-6-5 0-42 0-85 0-127a55 55 0 0 0-46-55l-2 0h-13l-1 0a55 55 0 0 0-47 57c1 41 0 82 0 123 0 7 0 7-7 7h-92c-8 0-7 1-7-7 0-42 0-84 0-126a52 52 0 0 0-32-51 110 110 0 0 0-16-4z m280 968a64 64 0 0 0 13-6 27 27 0 0 0 4-37c-10-14-19-28-28-43l-3-4 4-3a227 227 0 0 0 88-91 222 222 0 0 0 24-81c0-3 0-5-4-4h-526c-7 0-7 0-6 7a218 218 0 0 0 52 120 230 230 0 0 0 59 49c4 2 4 2 1 7-9 15-18 29-28 44a27 27 0 0 0 9 38 58 58 0 0 0 10 4h7a33 33 0 0 0 23-17c10-16 20-31 31-48 1-2 2-3 5-3a320 320 0 0 0 75 14 349 349 0 0 0 122-13 5 5 0 0 1 6 2c11 16 21 32 32 47a38 38 0 0 0 22 18z m-58-150a27 27 0 1 1 26-27 27 27 0 0 1-26 27z m-216-54a27 27 0 1 1-26 27 27 27 0 0 1 26-27z m-322-293c0 40 0 80 0 120a54 54 0 0 0 107 2c0-18 0-37 0-56q0-93 0-187a54 54 0 0 0-107-3c0 41 0 82 0 123z m861 0c0-41 0-81 0-121a53 53 0 0 0-46-53 54 54 0 0 0-62 50c0 3 0 6 0 9q0 117 0 234a54 54 0 0 0 107 3c0-41 0-82 0-123z" horiz-adv-x="1000" />

<glyph glyph-name="html5" unicode="&#xe875;" d="M502-134h-5a29 29 0 0 1-3 1l-339 96-3 1a4 4 0 0 0 0 1l-4 43-4 47-5 48-3 37-4 47-4 38-4 47-3 38-5 46-3 38-4 47-3 38-5 47-4 46-4 47-3 38-4 46-4 39-4 48c-1 12-2 24-3 36a22 22 0 0 1-1 5v3h853v-3c0-2 0-3 0-4s0-6 0-9q-1-14-3-29l-4-37-4-47-5-46-4-47-3-37-4-47-4-46-5-47-4-46q-2-23-4-47c-1-16-2-31-4-47-1-18-3-37-5-55s-3-37-5-55c-2-21-4-42-6-63s-3-43-5-64q-4-42-8-84c0-3 0-6-1-8l-3-2-333-93z m-269 790c0-1 0-2 0-3 1-12 1-23 2-35 2-18 4-36 5-54 2-16 3-31 4-47 2-18 4-36 5-55s4-36 5-54q4-37 7-73c0-1 0-2 0-3h371l-13-138-4-1-113-31a11 11 0 0 0-6 0l-112 32-4 1-7 85h-106l13-168 4-1 210-58a20 20 0 0 1 11 0l190 52 24 6c0 2 0 4 0 5q1 10 2 20 2 24 4 48c1 15 3 31 4 47s3 31 4 47 3 32 4 47c2 19 4 38 5 56 2 16 3 33 5 49 0 3 0 6 1 9h-389c-1 9-9 107-8 110h407l1 9c2 18 4 35 5 52 2 13 3 27 4 41a26 26 0 0 1 0 3z" horiz-adv-x="1000" />

<glyph glyph-name="ios" unicode="&#xe876;" d="M669 821a182 182 0 0 0 0-45 206 206 0 0 0-76-133 155 155 0 0 0-110-38 132 132 0 0 0 1 48 209 209 0 0 0 91 135 212 212 0 0 0 82 31 98 98 0 0 0 12 2z m197-690c-11-24-20-49-31-73a596 596 0 0 0-74-113 188 188 0 0 0-52-47 118 118 0 0 0-102-6c-11 4-22 8-31 13a186 186 0 0 1-157-4 200 200 0 0 0-63-18 104 104 0 0 0-78 27 442 442 0 0 0-83 100 547 547 0 0 0-62 128 503 503 0 0 0-29 220 273 273 0 0 0 59 148 221 221 0 0 0 179 85 188 188 0 0 0 61-13c17-6 34-12 51-20a98 98 0 0 1 79 4 382 382 0 0 0 94 30 231 231 0 0 0 132-22 205 205 0 0 0 77-62c1-2 2-4 4-7-67-47-106-108-100-192s51-140 126-178z" horiz-adv-x="1000" />

<glyph glyph-name="linux" unicode="&#xe877;" d="M674-134a72 72 0 0 0-48 38 13 13 0 0 1-8 5 465 465 0 0 1-166 5c-14-2-29-4-42-7a19 19 0 0 1-11-8 56 56 0 0 0-56-26 455 455 0 0 0-59 14c-34 10-68 21-102 31-20 5-41 8-63 12a57 57 0 0 0-13 6 27 27 0 0 0-16 38c3 10 6 20 9 30a67 67 0 0 1 0 41 106 106 0 0 0-5 21 31 31 0 0 0 26 36c13 4 26 7 39 11a66 66 0 0 1 38 33 206 206 0 0 0 19 24 11 11 0 0 1 3 8 94 94 0 0 0 8 63c14 31 26 62 37 95a339 339 0 0 0 54 97c11 14 21 30 33 43a90 90 0 0 1 21 65c-1 44-5 87-5 130a363 363 0 0 0 6 72 98 98 0 0 0 58 72 163 163 0 0 0 142 6 133 133 0 0 0 68-73 323 323 0 0 0 22-115c1-21 2-42 4-62a157 157 0 0 1 29-76q52-78 103-156a215 215 0 0 0 27-177 14 14 0 0 1 3-11 73 73 0 0 0 18-49 53 53 0 0 1 27-49 156 156 0 0 1 15-8c29-13 32-42 6-61a226 226 0 0 0-20-12l-113-68a38 38 0 0 1-7-5 107 107 0 0 0-57-33z m-300 152c12-14 24-28 36-41a19 19 0 0 1 11-6c25 0 49 0 74 0a189 189 0 0 1 141 73 24 24 0 0 1 5 14c2 28 3 57 4 86a16 16 0 0 0 16 17 214 214 0 0 0 23 0 44 44 0 0 1 2 5 269 269 0 0 1-4 139 1586 1586 0 0 1-91 219c-11 22-13 22-34 11s-47-25-70-39a49 49 0 0 0-60 5 168 168 0 0 0-17 14c-5 6-10 12-15 18a163 163 0 0 0-30-94 231 231 0 0 1-21-38c-12-29-22-60-36-88a242 242 0 0 1-27-86c-3-33 2-64 30-86 4-4 7-8 12-11 19-16 39-31 57-47a71 71 0 0 0 19-24c7-17-2-31-25-41z m6-66a109 109 0 0 1-9 23c-12 18-26 35-38 53-16 25-31 51-47 76a223 223 0 0 1-37 40c-9 8-18 5-25-6-5-8-9-17-14-25a38 38 0 0 0-26-22c-13-3-26-5-38-9-18-5-21-10-18-29a37 37 0 0 1 0-3 88 88 0 0 0-3-52 139 139 0 0 1-5-23c-2-13 1-17 13-21a162 162 0 0 1 19-4 468 468 0 0 0 119-31 281 281 0 0 1 58-18c24-4 51 20 52 51z m311 179c-14 2-18-1-18-12a473 473 0 0 0 2-53c-3-33-8-65-13-98a73 73 0 0 1 6-52 31 31 0 0 1 42-14 140 140 0 0 1 36 22 283 283 0 0 0 62 45c16 8 30 16 45 23a213 213 0 0 1 21 13c8 6 9 12 0 19a114 114 0 0 1-21 14 52 52 0 0 0-29 36 223 223 0 0 0-3 26 26 26 0 0 1-10 20c-1 0-1 0-2-1a31 31 0 0 1-2-4 77 77 0 0 0-59-42c-34-7-55 9-57 44 0 4 0 9 0 14z m-219 479a44 44 0 0 1-12-4c-15-11-31-23-47-35-11-9-12-14-2-24a422 422 0 0 1 34-27 31 31 0 0 1 39-2c20 12 41 23 62 36a97 97 0 0 1 16 14l-16 15-1 0-64 24a73 73 0 0 1-9 3z m43 10a183 183 0 0 0 2 30 22 22 0 0 0 22 18 24 24 0 0 0 21-18 38 38 0 0 0-11-44c8-7 13-5 20 1a67 67 0 0 1 3 85 41 41 0 0 1-68-3 63 63 0 0 1-11-46c2-18 5-21 22-24z m-80-1c7 4 12 7 17 10a7 7 0 0 1 3 4 64 64 0 0 1-13 54 28 28 0 0 1-46 0 71 71 0 0 1 0-83c11-13 13-13 24 1-18 3-26 30-21 45 2 8 6 16 14 15a28 28 0 0 0 17-10 42 42 0 0 0 5-37z" horiz-adv-x="1000" />

<glyph glyph-name="windows" unicode="&#xe878;" d="M17 695l394 57v-379h-394z m0-690l394-57v379h-394z m441 754v-386h525v461z m0-818l525-75v461h-525z" horiz-adv-x="1000" />

<glyph glyph-name="macos" unicode="&#xe87a;" d="M287 459a23 23 0 0 1 23 24v67a23 23 0 0 1-47 0v-67a23 23 0 0 1 24-24z m-49-230a23 23 0 1 1-35-31c65-75 176-120 297-120a487 487 0 0 1 68 5c-2 15-3 31-4 47a413 413 0 0 0-64-5c-108 1-206 39-262 104z m681 578h-838a67 67 0 0 1-66-66v-782a67 67 0 0 1 66-67h838a67 67 0 0 1 67 67v782a67 67 0 0 1-67 66z m-838-890a43 43 0 0 0-43 42v782a43 43 0 0 0 43 43h435a1383 1383 0 0 1-90-495 8 8 0 0 1 9-8l115 0a11 11 0 0 0 12-12c0-13 0-27 0-41q0-50 3-98c81 12 152 47 196 99a23 23 0 1 0 36-31c-52-61-135-102-228-116a1395 1395 0 0 1 25-167z m651 633v-67a23 23 0 0 0-47 0v67a23 23 0 0 0 47 0z" horiz-adv-x="1000" />

<glyph glyph-name="clock" unicode="&#xe87b;" d="M616 260a31 31 0 0 0-44-44l-88 88c-5-2-10-4-15-4-35 0-63 29-63 63 0 23 13 42 32 53v197a31 31 0 1 0 62 0v-197c18-11 31-30 31-53 0-5-1-10-3-15l88-88z m-147-303a407 407 0 0 0-406 406c0 224 182 406 406 406 224 0 406-182 406-406 0-224-182-406-406-406z m0 875c-259 0-469-211-469-469 0-258 210-469 469-469 258 0 469 211 469 469 0 258-211 469-469 469z" horiz-adv-x="1000" />

<glyph glyph-name="star" unicode="&#xe87c;" d="M727 224l7-242-7-4-227 81-227-81-7 4 7 242-147 191-25-19 27 26 232 68 136 199-26 18 34-18 136-199 232-68 2-7-147-191z m207 214a67 67 0 0 1-45 44l-210 62-124 181c-25 36-85 36-110 0l-124-181-210-62a67 67 0 0 1-34-105l133-174-6-219a67 67 0 0 1 90-65l206 73 206-73a67 67 0 0 1 90 65l-6 219 134 174c13 17 17 40 10 61z" horiz-adv-x="1000" />

<glyph glyph-name="googleplay" unicode="&#xe87d;" d="M247-53l383 217-82 91-301-308z m-140 797c-4-8-7-17-7-27v-757c0-14 5-26 13-35l382 390-388 429z m767-368l-134 75-136-139 98-108 172 97c16 8 24 23 26 38-2 15-10 29-26 37z m-206 116l-461 260 344-380 117 120z" horiz-adv-x="1000" />

<glyph glyph-name="dropbox" unicode="&#xe87f;" d="M305 805l-285-178 196-164 284 185-195 157z m368-755c-5 0-10 2-15 6l-158 131-158-131c-4-4-10-6-15-6-4 0-8 2-12 4l-117 77v-46l302-190 302 191v45l-117-77c-4-2-8-4-12-4z m307 577l-285 178-195-157 284-185 196 164z m-480-342l176-146 283 184-175 140-284-178z m-176-146l176 146-284 178-174-139 282-185z" horiz-adv-x="1000" />

<glyph glyph-name="twitter" unicode="&#xe881;" d="M866 538c0-8 0-17 0-25 0-249-189-537-537-537-106 0-205 32-289 85 15-2 30-3 45-3 89 0 170 31 234 81-82 2-152 56-176 131 12-2 23-3 36-3 17 0 34 2 49 6-86 18-151 94-151 186 0 0 0 1 0 2 25-14 55-23 85-24-50 34-84 92-84 157 0 35 10 67 26 95 93-114 232-189 389-197-3 14-5 28-5 43 0 104 85 189 189 189 54 0 103-23 138-60 43 9 83 25 120 46-14-44-44-81-83-104 38 4 74 14 108 29-25-38-57-71-94-97z" horiz-adv-x="1000" />

<glyph glyph-name="slack" unicode="&#xe883;" d="M412 392l43-129 133 45-43 128-133-45v1z m372-128l-64-21 22-67c9-27-6-57-33-66-6-2-12-3-18-3-21 1-40 15-48 36l-22 67-134-45 22-67c9-27-5-57-33-66-6-2-12-2-18-2-21 0-41 14-48 35l-23 68-65-22c-6-2-11-3-18-3-21 1-40 15-48 36-9 27 6 57 33 66l65 21-41 129-65-22c-6-2-12-3-18-2-21 0-41 14-47 35-9 27 5 56 33 65l65 22-23 67c-9 27 6 57 33 66 28 9 57-6 66-33l22-67 134 45-23 67c-9 26 6 56 33 65 27 9 57-5 66-33l22-67 65 21c27 9 56-6 65-33 10-27-5-56-32-65l-65-22 43-129 65 22c27 9 56-6 65-33 9-28-5-57-32-66l-1 1z m174 224c-103 343-252 423-595 320-344-103-424-252-321-595 103-344 252-424 596-321 343 103 423 252 320 596z" horiz-adv-x="1000" />

<glyph glyph-name="instagram" unicode="&#xe884;" d="M500 850c-136 0-153-1-206-3-53-2-90-11-121-23-33-13-61-30-89-58s-45-56-58-88c-12-32-20-69-23-122-2-53-3-70-3-206s1-153 3-206c3-53 11-90 23-121 13-33 30-61 58-89 28-28 56-45 89-58 31-12 68-21 121-23 53-3 70-3 206-3s153 1 206 3c53 2 90 11 122 23 32 13 60 30 88 58 28 28 45 55 58 89 12 31 21 68 23 121 3 53 3 70 3 206s-1 153-3 206c-2 53-11 90-23 122-13 32-30 60-58 88-28 28-55 45-88 58-32 12-69 21-122 23-53 3-70 3-206 3z m0-90c134 0 149-1 202-3 49-2 75-10 93-17 23-9 40-20 58-38 17-17 28-34 37-57 7-18 15-44 17-93 2-53 3-68 3-202s-1-149-3-202c-3-49-11-75-18-93-9-23-20-40-37-58-18-17-34-28-58-37-17-7-44-15-93-17-53-2-68-3-202-3-134 0-150 1-203 3-48 3-75 11-93 18-24 9-40 20-57 37-18 18-29 35-38 58-7 17-15 44-17 93-2 52-3 69-3 202 0 133 1 149 3 202 2 49 10 76 17 93 9 24 20 40 38 58 17 17 33 29 57 37 18 7 44 15 93 18 53 2 68 2 202 2l2-1z m0-153c-142 0-257-115-257-257 0-142 115-257 257-257 142 0 257 115 257 257 0 142-115 257-257 257z m0-424c-92 0-167 75-167 167s75 167 167 167 167-75 167-167-75-167-167-167z m327 434c0-33-27-60-60-60-33 0-60 27-60 60 0 33 27 60 60 60 33 0 60-27 60-60z" horiz-adv-x="1000" />

<glyph glyph-name="steam" unicode="&#xe885;" d="M499 850c-262 0-478-202-498-460l268-111c23 16 50 25 80 25 2 0 5 0 7 0l120 172v3c0 104 84 188 188 188 104 0 189-84 189-188s-85-189-189-189h-4l-170-121c0-2 0-5 0-7 0-78-63-141-141-141-68 0-126 49-139 113l-192 80c60-210 252-364 481-364 276 0 500 224 500 500s-224 500-500 500z m-185-759l-61 26c11-23 30-42 55-52 54-23 116 3 138 57 11 26 11 55 1 81s-32 47-58 58c-26 11-53 10-78 1l63-26c40-17 59-63 43-103-17-39-63-58-103-42h0z m476 388c0 69-57 126-126 126-69 0-125-57-125-126 0-69 56-126 125-126 70 0 126 57 126 126z m-220 0c0 52 42 95 95 95 52 0 94-43 94-95 0-52-42-94-94-94-53 0-95 42-95 94z" horiz-adv-x="1000" />

<glyph glyph-name="github" unicode="&#xe886;" d="M500 838c-276 0-500-224-500-500 0-221 143-409 342-475 25-5 34 11 34 24 0 12 0 44-1 85-139-30-168 67-168 67-23 58-56 74-56 74-45 31 4 30 4 30 50-4 77-52 77-52 44-76 117-54 145-41 5 32 18 54 32 67-111 12-228 55-228 247 0 54 19 99 52 134-6 13-23 63 4 132 0 0 42 14 137-51 40 11 83 17 125 17 43 0 85-6 125-17 95 65 137 51 137 51 27-69 10-119 5-132 32-35 52-80 52-134 0-192-117-235-229-247 18-15 34-46 34-92 0-67 0-121 0-137 0-14 8-29 34-24 200 65 343 253 343 474 0 276-224 500-500 500" horiz-adv-x="1000" />

<glyph glyph-name="facebook" unicode="&#xe887;" d="M945 850h-890c-30 0-55-25-55-55v-890c0-30 25-55 55-55h479v387h-130v151h130v112c0 129 79 199 194 199 55 0 103-4 117-6v-135h-80c-63 0-75-30-75-74v-96h149l-19-151h-130v-387h255c30 0 55 25 55 55v890c0 30-25 55-55 55" horiz-adv-x="1000" />
</font>
</defs>
</svg>
